# xmcd
#
# Track frame offsets: 
#        150
#        14023
#        27908
#        40892
#        55904
#        67111
#        81180
#        91659
#        106011
#        121784
#        137799
#        149783
#        161025
#        174311
#        188851
#
# Disc length: 2685 seconds
#
# Revision: 0
# Processed by: cddbd v1.5.2PL0 Copyright (c) Steve Scherf et al.
# Submitted via: ExactAudioCopy v0.95a5
#
DISCID=cd0a7b0f
DTITLE=The Good Brothers - Blind Faith
DYEAR=2006
DGENRE=Gospel
TTITLE0=A Beautiful Life
TTITLE1=True Believer
TTITLE2=Crying Holy Unto the Lord
TTITLE3=This Road of Life
TTITLE4=Canaan's Happy Land
TTITLE5=Mighty River
TTITLE6=Jordan
TTITLE7=Blind Faith
TTITLE8=An Old Man's Tears
TTITLE9=The Palm of His Hand
TTITLE10=Lonesome Valley
TTITLE11=The Space Between the Stars
TTITLE12=Sunday After Church With You
TTITLE13=Paul and Silas
TTITLE14=Untitled
EXTD=
EXTT0=
EXTT1=
EXTT2=
EXTT3=
EXTT4=
EXTT5=
EXTT6=
EXTT7=
EXTT8=
EXTT9=
EXTT10=
EXTT11=
EXTT12=
EXTT13=
EXTT14=
PLAYORDER=
